<svg width="48" height="48" viewBox="0 0 48 48" fill="none" xmlns="http://www.w3.org/2000/svg">
<path fill-rule="evenodd" clip-rule="evenodd" d="M24 0C10.7452 0 0 10.7452 0 24C0 37.2548 10.7452 48 24 48C37.2548 48 48 37.2548 48 24C48 10.7452 37.2548 0 24 0ZM34.7334 12.8H12.8667C11.3634 12.8 10.147 14.03 10.147 15.5333L10.1334 31.9333C10.1334 33.4367 11.3634 34.6667 12.8667 34.6667H34.7334C36.2367 34.6667 37.4667 33.4367 37.4667 31.9333V15.5333C37.4667 14.03 36.2367 12.8 34.7334 12.8ZM34.7334 18.2667L23.8 25.1001L12.8667 18.2667V15.5334L23.8 22.3667L34.7334 15.5334V18.2667Z" fill="#FC7F6C"/>
</svg>
